<?xml version="1.0" encoding="UTF-8"?>
<svg id="Layer_1" xmlns="http://www.w3.org/2000/svg" version="1.1" viewBox="0 0 1080 1080">
  <!-- Generator: Adobe Illustrator 30.2.1, SVG Export Plug-In . SVG Version: 2.1.1 Build 1)  -->
  <path d="M434.15,505.72c-2.54,13.85-8.05,27.26-16.32,38.7-.27.38-.53.76-.77,1.13-.18.26-.31.5-.44.75-.02.04-.05.12,0,.02.06-.18.09-.32.07-.66-.05-1.11-1.39-2.01-2.46-1.58,1.6-1.17,3.04-2.64,4.5-4.01,10.97-10.7,21.57-21.91,32.15-33.01,0,0,1.97-2.09,1.97-2.09l.98-1.05c.38-.43.83-.83,1.34-1.13,2.55-1.51,6.03-.15,6.89,2.7.36.9.17,2.24.15,3.19-.49,8.83-1.02,17.71-2.65,26.45-.38,1.88-.85,3.85-1.57,5.66l-.25.63c-.02.05-.04.11-.04.11.15-.51.17-.88.08-1.55-.07-.33-.14-.9-.68-1.72-1.15-1.8-3.71-2.43-5.46-1.48,0,0-.09.05-.09.05l-.05.03s-.02.01-.02.01c.11-.09.24-.21.41-.36,7.41-7.48,14.48-15.48,22.37-22.56,5.76-5.35,12.1-10.16,18.5-14.79,2.31-1.6,4.64-3.39,7.4-4.29,2.14-.69,4.66-.36,6.39,1.18,1.38,1.18,2.13,2.97,2.26,4.75.16,2.18-.3,4.38-.68,6.35-.39,1.95-1.43,6.55-1.86,8.55-1.18,5.42-2.3,11.54-3.49,16.95-.47,2.38-1.6,7.06-1.86,9.39,0,0,0,.07,0,.07,0,.03,0,.04,0,.04,0,0,0,.03,0,.02,0-.14-.02-.3-.04-.44-.19-1.17-.92-2.33-1.9-3.05-1.54-1.21-3.9-1.46-5.54-.45,3.39-3.18,6.76-7.11,10.23-10.59,8.11-8.37,16.42-16.52,24.96-24.45,4.28-3.96,8.71-7.93,13.21-11.68,1.48-1.17,2.82-2.44,4.71-3.2,1.88-.7,4.15-.55,5.94,1.05,2,1.87,2.21,4.26,1.51,6.48-.47,1.4-1.08,2.65-1.66,3.93,0,0-1.17,2.57-1.17,2.57-2.24,5.03-4.16,10.18-5.56,15.49-1.88,6.32-2.99,16.28-3.04,21.09,0,0,.09,1.16.09,1.16,0,.01,0,0-.04-.16-.01-.06-.03-.11-.05-.17-.31-1.01-.93-1.83-1.83-2.45-1.37-.94-3.29-1.11-4.74-.3l-.1.06c-.11.07-.09.06-.08.06.39-.26,1.15-.96,1.53-1.25,2.81-2.38,5.83-4.73,8.82-6.87,4.3-3.11,8.42-6.42,12.56-9.81,5.03-4.05,9.85-8.39,15.29-12.02.89-.57,2-1.2,3.08-1.53,1.96-.64,4.21.18,5.34,1.9.83,1.21,1.1,2.77,1.22,4.01.41,6.63-.58,13.13-1.15,19.63-.47,5.45-1.27,10.84-1.08,16.24,0,0,.01.12.01.12v.05c-.12-.59-.41-1.04-.97-1.44-.4-.28-.97-.47-1.46-.39-.02,0-.06.01-.07.02-.02.02.07,0,.17-.04,1.19-.5,2.25-1.28,3.34-2.07,2.09-1.56,4.09-3.26,6.07-5.01,9.35-8.37,18.16-17.4,26.79-26.51,3.71-3.93,7.37-7.91,10.94-11.97,2.36-2.73,4.77-5.42,6.82-8.39-.42.8-.88,1.58-1.36,2.35-4.38,6.87-9.42,13.3-14.45,19.7-7.97,9.93-16.11,19.59-25.08,28.7-1.96,1.96-3.97,3.91-6.12,5.71-2.17,1.72-5.34,4.54-8.37,3.4-1.51-.58-2.35-1.98-2.51-3.49-.3-2.24-.28-4.4-.27-6.59.13-7.28.7-14.47.88-21.67.05-1.76.07-3.51.01-5.17-.02-1.05-.11-2.16-.32-3.02-.02-.06-.03-.01.06.16.11.24.28.46.46.65.87.93,2.33,1.3,3.51.93,0,0,.01,0,.01,0,0,0,.02,0,.03,0h.01s0,0,0,0h-.01s-.05.04-.05.04c-.98.56-1.88,1.29-2.85,2.06-6.91,5.7-13.45,11.93-20.42,17.66-2.73,2.3-5.72,4.45-8.46,6.73-2.06,1.65-3.98,3.52-6.06,5.2-1.89,1.5-4.52,1.84-6.59.43-1.19-.8-1.93-2.01-2.25-3.36-.14-.66-.21-1.21-.25-1.72-.02-.32-.1-.79-.09-1.1-.29-15.71,3.82-31.21,10.43-45.37.31-.69.45-1.06.56-1.38,0,0-.02.07-.02.07l-.03.13c-.68,3.96,3.49,7.2,7.15,5.63,0,0,.14-.06.14-.06l.08-.04c.13-.07.04-.02-.06.06-.59.43-1.29,1.03-1.91,1.54-14.38,12.44-27.91,25.94-41.1,39.63-2.31,2.38-4.45,4.87-7.04,7.13-.48.4-1.27.99-1.93,1.32-4.08,2.14-8.73-.5-9.04-5.12-.11-1.31.11-2.72.31-3.91.54-2.99,1.23-5.83,1.86-8.72,1.24-5.43,2.42-11.55,3.68-16.96.73-3.31,2.15-8.55,2.52-11.63.22,1.56,1.53,2.87,3,3.32.7.21,1.43.26,2.05.07-1.51.68-2.96,1.73-4.39,2.7-1.52,1.05-3.08,2.16-4.63,3.27-10.81,7.49-20.45,16.66-29.83,25.99-2.15,2.11-4.16,4.19-6.49,6.24-.55.47-1.22,1.01-1.9,1.38-2.84,1.62-6.5.05-7.02-3.28-.24-1.53.29-2.77.86-4.05.11-.3.3-.67.38-.98.21-.59.37-1.16.53-1.78.33-1.17.65-2.73.9-3.94,1.53-7.8,2.36-15.87,3.13-23.82-.09,2.46,2.9,3.78,4.63,2.06.08-.09,0,0,0,0l-.26.25c-1.94,1.87-5.36,5.15-7.34,7.02-9.86,9.28-19.74,18.51-30.07,27.27-1.82,1.47-3.52,3-5.58,4.2,0,0-.15.07-.15.07l-.19.08c-.06.03-.18.07-.27.1-.11.03-.29.08-.49.09-.28.01-.66.05-1.33-.32-.68-.45-.94-1.17-.94-1.54-.07-.64.19-1.23.43-1.65.73-1.23,1.73-2.28,2.6-3.39,3.64-4.36,6.75-9.14,9.52-14.11,3.63-6.74,6.72-13.83,8.85-21.19h0Z"/>
  <path d="M636.49,507.27c13.72-2.91,32.37-.53,45.41,4.52,2.07.83,4.13,1.74,6.11,2.95-2.25.41-4.46.57-6.71.69-13.96.62-32.22-1.94-44.8-8.15h0Z"/>
  <path d="M633.08,552.39c3.83-1.58,7.9-2.37,11.97-3,5.36-.8,10.77-1.06,16.17-1.02,6.73.08,13.44.66,20.07,1.8,5.35.97,10.68,2.2,15.77,4.21-7.96,1.59-16.1,1.81-24.17,1.8-13.37-.15-26.65-1.27-39.82-3.78h0Z"/>
  <path d="M352.61,567.06c9.59-4.47,20.08-6.75,30.54-8.11,7.22-.9,14.57-1.22,21.83-1.02,5.79.15,11.98.77,17.73,1.45,5.24.59,17.75,2.09,23.15,2.71,8.35.92,16.7,1.99,25.1,2.3,1.94.06,3.91.05,5.84-.16-.62.27-1.23.55-1.84.74-3.14,1.07-6.45,1.6-9.73,2.04-14.35,1.67-28.93.98-43.28-.25-6.31-.61-12.88-1.26-19.2-1.6-16.72-.83-33.53-.33-50.14,1.9h0Z"/>
</svg>